<svg width="40" height="40" viewBox="0 0 40 40" fill="none" xmlns="http://www.w3.org/2000/svg">
<g id="Frame">
<g id="Group">
<path id="Vector" d="M2.35791 20.657H4.21369V25.2148H2.35791V20.657Z" fill="#F8CCC9"/>
<path id="Vector_2" d="M9.35119 7.66357H4.7658C3.26768 7.66357 2.05322 8.87803 2.05322 10.3762V20.1058H12.0638V10.3762C12.0638 8.87803 10.8493 7.66357 9.35119 7.66357Z" fill="#E9544C"/>
<path id="Vector_3" d="M9.3509 7.66357H5.91309C7.41121 7.66357 8.62566 8.87803 8.62566 10.3762V20.1058H12.0635V10.3762C12.0635 8.87803 10.849 7.66357 9.3509 7.66357Z" fill="#F8CCC9"/>
<path id="Vector_4" d="M12.9818 21.7918H1.13469C0.98915 21.7918 0.849573 21.7339 0.746663 21.631C0.643752 21.5281 0.585938 21.3885 0.585938 21.243V19.6591C0.585938 19.5136 0.643752 19.374 0.746663 19.2711C0.849573 19.1682 0.98915 19.1104 1.13469 19.1104H12.9818C13.1273 19.1104 13.2669 19.1682 13.3698 19.2711C13.4727 19.374 13.5305 19.5136 13.5305 19.6591V21.243C13.5305 21.3885 13.4727 21.5281 13.3698 21.631C13.2669 21.7339 13.1273 21.7918 12.9818 21.7918Z" fill="#E9544C"/>
<path id="Vector_5" d="M22.2906 7.66357H17.7053C16.2071 7.66357 14.9927 8.87803 14.9927 10.3762V20.1058H25.0032V10.3762C25.0032 8.87803 23.7888 7.66357 22.2906 7.66357Z" fill="#E9544C"/>
<path id="Vector_6" d="M22.2908 7.66357H18.8335C20.3316 7.66357 21.5461 8.87803 21.5461 10.3762V20.1058H25.0034V10.3762C25.0034 8.87803 23.789 7.66357 22.2908 7.66357Z" fill="#F8CCC9"/>
<path id="Vector_7" d="M25.9217 21.7918H14.0746C13.9291 21.7918 13.7895 21.7339 13.6866 21.631C13.5837 21.5281 13.5259 21.3885 13.5259 21.243V19.6591C13.5259 19.5136 13.5837 19.374 13.6866 19.2711C13.7895 19.1682 13.9291 19.1104 14.0746 19.1104H25.9217C26.0673 19.1104 26.2069 19.1682 26.3098 19.2711C26.4127 19.374 26.4705 19.5136 26.4705 19.6591V21.243C26.4705 21.3885 26.4127 21.5281 26.3098 21.631C26.2069 21.7339 26.0673 21.7918 25.9217 21.7918Z" fill="#E9544C"/>
<path id="Vector_8" d="M35.7681 20.657H37.6238V25.2148H35.7681V20.657Z" fill="#F8CCC9"/>
<path id="Vector_9" d="M35.2344 7.66357H30.6491C29.151 7.66357 27.9365 8.87803 27.9365 10.3762V20.1058H37.9471V10.3762C37.9471 8.87803 36.7325 7.66357 35.2344 7.66357Z" fill="#E9544C"/>
<path id="Vector_10" d="M35.2342 7.66357H31.7964C33.2945 7.66357 34.509 8.87803 34.509 10.3762V20.1058H37.9468V10.3762C37.9468 8.87803 36.7323 7.66357 35.2342 7.66357Z" fill="#F8CCC9"/>
<path id="Vector_11" d="M38.8652 21.7918H27.018C26.8724 21.7918 26.7329 21.7339 26.63 21.631C26.5271 21.5281 26.4692 21.3885 26.4692 21.243V19.6591C26.4692 19.5136 26.5271 19.374 26.63 19.2711C26.7329 19.1682 26.8724 19.1104 27.018 19.1104H38.8651C39.0106 19.1104 39.1502 19.1682 39.2531 19.2711C39.356 19.374 39.4138 19.5136 39.4138 19.6591V21.243C39.4139 21.3151 39.3997 21.3864 39.3721 21.453C39.3445 21.5196 39.3041 21.5801 39.2532 21.631C39.2022 21.682 39.1417 21.7224 39.0752 21.75C39.0086 21.7776 38.9372 21.7918 38.8652 21.7918Z" fill="#E9544C"/>
<path id="Vector_12" d="M38.8654 19.1104H35.9634V21.7918H38.8654C39.0109 21.7918 39.1505 21.7339 39.2534 21.631C39.3563 21.5281 39.4142 21.3885 39.4142 21.243V19.6591C39.4142 19.5136 39.3563 19.374 39.2534 19.2711C39.1505 19.1682 39.0109 19.1104 38.8654 19.1104Z" fill="#F8CCC9"/>
<path id="Vector_13" d="M8.82568 27.7788H10.6815V32.3366H8.82568V27.7788ZM16.3522 27.7788H18.208V32.3366H16.3522V27.7788Z" fill="#F8CCC9"/>
<path id="Vector_14" d="M15.8189 14.7854H11.2336C9.73545 14.7854 8.521 15.9999 8.521 17.498V27.2277H18.5315V17.498C18.5315 15.9999 17.317 14.7854 15.8189 14.7854Z" fill="#E9544C"/>
<path id="Vector_15" d="M15.8192 14.7854H12.3813C13.8795 14.7854 15.0939 15.9999 15.0939 17.498V27.2277H18.5317V17.498C18.5317 15.9999 17.3173 14.7854 15.8192 14.7854Z" fill="#F8CCC9"/>
<path id="Vector_16" d="M19.4501 28.9136H7.60295C7.45741 28.9136 7.31783 28.8558 7.21492 28.7529C7.11201 28.6499 7.0542 28.5104 7.0542 28.3648V26.7809C7.0542 26.6354 7.11201 26.4958 7.21492 26.3929C7.31783 26.29 7.45741 26.2322 7.60295 26.2322H19.4501C19.5957 26.2322 19.7352 26.29 19.8382 26.3929C19.9411 26.4958 19.9989 26.6354 19.9989 26.7809V28.3648C19.9989 28.5104 19.9411 28.6499 19.8382 28.7529C19.7352 28.8558 19.5957 28.9136 19.4501 28.9136Z" fill="#E9544C"/>
<path id="Vector_17" d="M19.4501 26.2319H16.5024V28.9133H19.4501C19.5956 28.9133 19.7352 28.8555 19.8381 28.7526C19.941 28.6497 19.9988 28.5101 19.9988 28.3646V26.7807C19.9988 26.6351 19.941 26.4956 19.8381 26.3927C19.7352 26.2897 19.5956 26.2319 19.4501 26.2319Z" fill="#F8CCC9"/>
<path id="Vector_18" d="M21.7686 27.7788H23.6243V32.3366H21.7686V27.7788ZM29.2959 27.7788H31.1517V32.3366H29.2959V27.7788Z" fill="#F8CCC9"/>
<path id="Vector_19" d="M28.7627 14.7854H24.1774C22.6793 14.7854 21.4648 15.9999 21.4648 17.498V27.2277H31.4754V17.498C31.4753 15.9999 30.2609 14.7854 28.7627 14.7854Z" fill="#E9544C"/>
<path id="Vector_20" d="M28.7625 14.7854H25.3149C26.8131 14.7854 28.0275 15.9999 28.0275 17.498V27.2277H31.4751V17.498C31.4751 15.9999 30.2606 14.7854 28.7625 14.7854Z" fill="#F8CCC9"/>
<path id="Vector_21" d="M32.3934 28.9136H20.5463C20.4008 28.9136 20.2612 28.8558 20.1583 28.7529C20.0554 28.6499 19.9976 28.5104 19.9976 28.3648V26.7809C19.9976 26.6354 20.0554 26.4958 20.1583 26.3929C20.2612 26.29 20.4008 26.2322 20.5463 26.2322H32.3934C32.539 26.2322 32.6785 26.29 32.7814 26.3929C32.8844 26.4958 32.9422 26.6354 32.9422 26.7809V28.3648C32.9422 28.4369 32.928 28.5083 32.9004 28.5748C32.8728 28.6414 32.8324 28.7019 32.7815 28.7529C32.7305 28.8038 32.67 28.8443 32.6034 28.8718C32.5368 28.8994 32.4655 28.9136 32.3934 28.9136Z" fill="#E9544C"/>
<path id="Vector_22" d="M32.3936 26.2319H29.4785V28.9133H32.3936C32.5391 28.9133 32.6787 28.8555 32.7816 28.7526C32.8845 28.6497 32.9423 28.5101 32.9423 28.3646V26.7807C32.9424 26.7086 32.9282 26.6373 32.9006 26.5707C32.873 26.5041 32.8326 26.4436 32.7816 26.3926C32.7307 26.3417 32.6702 26.3013 32.6036 26.2737C32.537 26.2461 32.4657 26.2319 32.3936 26.2319Z" fill="#F8CCC9"/>
<path id="Vector_23" d="M38.8652 18.5244H38.5329V15.2437C38.5329 14.92 38.2705 14.6576 37.9469 14.6576C37.6232 14.6576 37.3609 14.92 37.3609 15.2437V18.5244H32.0612V17.4979C32.0612 15.679 30.5814 14.1993 28.7625 14.1993H28.5223V10.3762C28.5223 9.20365 29.4763 8.24967 30.649 8.24967H35.2343C36.4069 8.24967 37.3609 9.20365 37.3609 10.3762V12.4927C37.3609 12.8164 37.6232 13.0787 37.9469 13.0787C38.2705 13.0787 38.5329 12.8164 38.5329 12.4927V10.3762C38.5329 8.5574 37.0532 7.07764 35.2343 7.07764H30.649C28.8302 7.07764 27.3503 8.55732 27.3503 10.3762V14.1993H25.5894V10.3762C25.5894 8.5574 24.1097 7.07764 22.2908 7.07764H17.7055C15.8866 7.07764 14.4068 8.55732 14.4068 10.3762V14.1993H12.6496V10.3762C12.6496 8.5574 11.1698 7.07764 9.35094 7.07764H4.76562C2.9468 7.07764 1.46703 8.55732 1.46703 10.3762V12.5215C1.46703 12.8452 1.72937 13.1076 2.05305 13.1076C2.37672 13.1076 2.63906 12.8452 2.63906 12.5215V10.3762C2.63906 9.20365 3.59305 8.24967 4.76562 8.24967H9.35102C10.5237 8.24967 11.4777 9.20365 11.4777 10.3762V14.1993H11.2338C9.41492 14.1993 7.93516 15.679 7.93516 17.4979V18.5244H2.63906V15.2481C2.63906 14.9244 2.37672 14.6621 2.05305 14.6621C1.72937 14.6621 1.46703 14.9244 1.46703 15.2481V18.5244H1.13477C0.509063 18.5244 0 19.0335 0 19.6591V21.243C0 21.8687 0.509063 22.3778 1.13477 22.3778H1.77141V24.6662C1.65963 24.7079 1.56326 24.7827 1.49521 24.8807C1.42716 24.9788 1.39067 25.0952 1.39062 25.2145C1.39061 25.2915 1.40577 25.3677 1.43521 25.4388C1.46466 25.5099 1.50782 25.5745 1.56224 25.6289C1.61666 25.6833 1.68127 25.7265 1.75237 25.7559C1.82347 25.7854 1.89968 25.8005 1.97664 25.8005H4.61312C4.75211 25.8004 4.88652 25.7509 4.99237 25.6608C5.09822 25.5708 5.16861 25.446 5.19096 25.3088C5.21332 25.1717 5.18619 25.031 5.11441 24.912C5.04264 24.793 4.9309 24.7034 4.79914 24.6591V22.3778H7.93516V25.646H7.60289C6.97711 25.646 6.46805 26.1551 6.46805 26.7808V28.3647C6.46805 28.9904 6.97711 29.4994 7.60289 29.4994H8.23945V31.7878C8.12767 31.8295 8.03131 31.9044 7.96326 32.0024C7.89521 32.1004 7.85872 32.2168 7.85867 32.3361C7.85866 32.4131 7.87381 32.4893 7.90326 32.5604C7.93271 32.6315 7.97587 32.6961 8.03029 32.7505C8.08471 32.805 8.14931 32.8481 8.22042 32.8776C8.29152 32.907 8.36773 32.9222 8.44469 32.9222H11.0812C11.2202 32.9221 11.3546 32.8725 11.4605 32.7825C11.5663 32.6924 11.6367 32.5676 11.6591 32.4305C11.6814 32.2933 11.6543 32.1526 11.5825 32.0336C11.5108 31.9146 11.399 31.825 11.2673 31.7808V29.4994H15.7665V31.7878C15.6547 31.8295 15.5583 31.9044 15.4903 32.0024C15.4222 32.1004 15.3857 32.2168 15.3857 32.3361C15.3857 32.4131 15.4008 32.4893 15.4303 32.5604C15.4597 32.6315 15.5029 32.6961 15.5573 32.7505C15.6117 32.805 15.6763 32.8481 15.7474 32.8776C15.8186 32.907 15.8948 32.9222 15.9717 32.9222H18.6083C18.7473 32.9221 18.8818 32.8727 18.9877 32.7826C19.0937 32.6925 19.1641 32.5677 19.1864 32.4305C19.2088 32.2933 19.1816 32.1526 19.1098 32.0335C19.0379 31.9145 18.9261 31.8249 18.7942 31.7808V29.4994H19.45C19.6418 29.4996 19.8305 29.4507 19.9982 29.3576C20.1659 29.4507 20.3546 29.4996 20.5464 29.4994H21.183V31.7878C21.0713 31.8295 20.9749 31.9044 20.9069 32.0024C20.8388 32.1004 20.8023 32.2168 20.8023 32.3361C20.8023 32.4131 20.8174 32.4893 20.8469 32.5604C20.8763 32.6315 20.9195 32.6961 20.9739 32.7505C21.0283 32.805 21.0929 32.8481 21.164 32.8776C21.2351 32.907 21.3113 32.9222 21.3883 32.9222H24.0248C24.1638 32.9221 24.2982 32.8725 24.4041 32.7825C24.5099 32.6924 24.5803 32.5676 24.6027 32.4305C24.625 32.2933 24.5979 32.1526 24.5261 32.0336C24.4544 31.9146 24.3426 31.825 24.2109 31.7808V29.4994H28.7101V31.7878C28.5983 31.8295 28.5019 31.9044 28.4338 32.0024C28.3658 32.1004 28.3293 32.2168 28.3292 32.3361C28.3292 32.4131 28.3444 32.4893 28.3738 32.5604C28.4033 32.6315 28.4464 32.6961 28.5008 32.7505C28.5553 32.805 28.6199 32.8481 28.691 32.8776C28.7621 32.907 28.8383 32.9222 28.9152 32.9222H31.5518C31.6908 32.9221 31.8252 32.8725 31.931 32.7825C32.0369 32.6924 32.1073 32.5676 32.1296 32.4305C32.152 32.2933 32.1249 32.1526 32.0531 32.0336C31.9813 31.9146 31.8696 31.825 31.7378 31.7808V29.4994H32.3936C33.0193 29.4994 33.5284 28.9904 33.5284 28.3647V26.7808C33.5284 26.1551 33.0193 25.646 32.3936 25.646H32.0613V22.3778H35.1818V24.6662C35.07 24.7079 34.9737 24.7827 34.9056 24.8807C34.8376 24.9788 34.8011 25.0952 34.801 25.2145C34.801 25.2915 34.8162 25.3677 34.8456 25.4388C34.875 25.5099 34.9182 25.5745 34.9726 25.6289C35.0271 25.6833 35.0917 25.7265 35.1628 25.7559C35.2339 25.7854 35.3101 25.8005 35.387 25.8005H38.0234C38.1624 25.8004 38.2968 25.7509 38.4027 25.6608C38.5085 25.5708 38.5789 25.446 38.6013 25.3088C38.6236 25.1717 38.5965 25.031 38.5247 24.912C38.453 24.793 38.3412 24.7034 38.2095 24.6591V22.3778H38.8652C39.4909 22.3778 40 21.8687 40 21.243V19.6591C40 19.0335 39.4909 18.5244 38.8652 18.5244ZM28.7626 15.3712C29.9352 15.3712 30.8892 16.3252 30.8892 17.4978V25.646H22.0506V17.4979C22.0506 16.3253 23.0046 15.3713 24.1773 15.3713L28.7626 15.3712ZM15.5788 10.3762C15.5788 9.20365 16.5328 8.24967 17.7055 8.24967H22.2909C23.4634 8.24967 24.4174 9.20365 24.4174 10.3762V14.1993H24.1772C22.3584 14.1993 20.8785 15.679 20.8785 17.4979V18.5244H19.1176V17.4979C19.1176 15.679 17.6379 14.1993 15.819 14.1993H15.5788L15.5788 10.3762ZM20.8786 19.6964V21.2058H19.1177V19.6964H20.8786ZM9.10711 25.646V17.4979C9.10711 16.3253 10.0611 15.3713 11.2337 15.3713H15.8191C16.9916 15.3713 17.9456 16.3253 17.9456 17.4979V25.646H9.10711ZM3.62711 24.6286H2.94336V22.3779H3.62711V24.6286ZM7.93516 21.2058H1.17195V19.6964H7.93508L7.93516 21.2058ZM10.0952 31.7501H9.41141V29.4994H10.0952V31.7501ZM17.6222 31.7501H16.9384V29.4994H17.6222V31.7501ZM19.4116 28.3275V28.3723L7.64 28.3275V26.818H19.4116V28.3275ZM19.9981 25.7879C19.8304 25.6947 19.6418 25.6459 19.4499 25.646H19.1177V22.3778H20.8786V25.646H20.5463C20.3545 25.6459 20.1658 25.6947 19.9981 25.7879ZM23.0387 31.7501H22.3549V29.4994H23.0387V31.7501ZM30.5657 31.7501H29.882V29.4994H30.5657V31.7501ZM32.3563 26.818V28.3275H20.5847V26.818H32.3563ZM37.0375 24.6286H36.3537V22.3779H37.0375V24.6286ZM38.828 21.2058H32.0612V19.6964H38.828V21.2058Z" fill="#263238"/>
</g>
</g>
</svg>
