<svg xmlns="http://www.w3.org/2000/svg" viewBox="0 0 239.36 296.9"><title>Asset 32</title><g id="Layer_2" data-name="Layer 2"><g id="Слой_1" data-name="Слой 1"><path d="M184.61,0c45.9,0,55.6,13.8,54.7,20.7-.3,2.7-2.2,8-7.7,7.7a16.78,16.78,0,0,1,6.7,13.4c0,8.6-7.6,13.8-14.4,14.5-29.3.9-46.1,3.7-76.1,9.5,31.9-5.4,48.8-6.1,76.1-7.1,2.2,1.1,5.2,3.4,4.6,10.6-.7,9.6-9.6,14.3-14,14.3-36.9-.6-58.1,1.9-95.4,11.5,39.2-7.3,48.3-9.1,95.4-9,3.3,1.1,8.5,2.5,8.5,10.9,0,9.2-10.1,13.1-15.1,13.9,3.1.6,9.3,4.1,9.3,13.8,0,8.7-5.6,12.9-9.3,14.9-28.3-2.6-44.2-.4-72.4,4.8,29.7-4.2,45.7-3,72.4-.8,1.8,1.1,4.1,1.8,4.8,6.5.9,6-8.2,10.9-12,11.6-15.1-1.3-23.6-.3-38.6,1,15.3-.7,23.7,1.5,38.5,2.6,1.5,1.6,3.9,2.9,3.9,6.8,0,13.1-13.7,16.1-20.6,15.9,4.3,2.4,5.5,7.6,5.6,9.9,0,10.4-12.4,16-18.6,17.5,3.6-.3,3.5,4.1,3,6.4-1.1,7.4-8.5,8.4-12.5,7.9,1.6.3,4.4,2.1,5,7.3.7,5.7-5.9,9.2-9.3,10.2,2.8.7,3.7,4.9,3.8,6.9.8,7.9-8,11.3-12.5,11.9-13.6,10.7-11.2,25-8.3,30.9C124,289.1,121,280,121,272.8c0-5.8,2.6-10,3.9-11.3-2.5-.6-7.4-2.9-7.4-7.4a9,9,0,0,1,4.2-7.8c-2.3-.3-7.1-2.1-7.8-7a8.05,8.05,0,0,1,4.3-8.4c-1.6-.2-5.1-2.1-6.4-7.8s3.2-8.4,5.6-9c-3.6-.4-10.9-2.8-11.6-9.4-.6-6,4.5-8.8,7.9-10.3,19.1-4.2,29.6-6.5,46.9-6.5-16.1-.7-26.7-1.7-46.9,3-4-.4-10.8-.2-12.2-5.2-1.5-5.4,3.9-9.9,6.7-11.4-6,2.5-12.2-1.3-14.7-7.8-2-5.2,3-11.8,5.5-14.7-10.7,3.3-20.1,0-21.9-7.5-1.4-5.9,2.4-8.6,3.8-10.2,26.2-10.6,40.9-16.5,68.5-19.7-28.1,2.3-43.2,5.4-69.7,16-5.7,1.3-16.7,4-19.8-2.9-3.3-7.1,1.9-13.3,4.8-15.5-1.2.6-5.2,1.9-11.2,2.4-7.5.6-15.5-4.1-16.3-8.8a23.26,23.26,0,0,1,.8-9.5,25.46,25.46,0,0,1-8.3,1.9c-15.5,0-12.5-11.8-9.7-19.7,31.7-19.7,48.1-28.5,81.6-36.5-33.9,7-52.5,13.3-84.4,33.6C2.91,77.8-.19,68.9,0,64,5.91,16.2,127.21,0,184.61,0Z"/></g></g></svg>